<?xml version="1.0" encoding="UTF-8"?>
<svg id="_圖層_1" data-name="圖層_1" xmlns="http://www.w3.org/2000/svg" version="1.1" viewBox="0 0 800 100">
  <!-- Generator: Adobe Illustrator 29.3.1, SVG Export Plug-In . SVG Version: 2.1.0 Build 151)  -->
  <defs>
    <style>
      .st0 {
        fill: #e0765a;
      }
    </style>
  </defs>
  <path class="st0" d="M40.64,39.18h-5.29c-.34-7.21-3.27-10.82-8.81-10.82-6.54,0-9.65,6.54-9.31,19.63-.67,14.09,2.43,21.14,9.31,21.14,4.86.17,7.63-3.27,8.31-10.32v-1.51c.17-.67.33-1.26.5-1.76h5.29c-.34.67-.42,1.6-.25,2.77-.17.67-.25,1.26-.25,1.76-.34,3.86-1.26,6.71-2.77,8.56-2.52,3.36-5.96,5.03-10.32,5.03-11.07.33-16.19-8.14-15.35-25.42-.34-16.44,4.7-24.66,15.1-24.66,8.89.5,13.5,5.71,13.84,15.6Z"/>
  <path class="st0" d="M54.23,72.9h-5.29V24.58h5.29v20.13h18.62v-20.13h5.29v48.32h-5.29v-23.41h-18.62v23.41Z"/>
  <path class="st0" d="M83.93,72.9l13.84-48.32h7.05l13.59,48.32h-6.04l-3.78-13.84h-15.35l-3.52,13.84h-5.79ZM107.34,54.28l-6.29-25.92-6.29,25.92h12.58Z"/>
  <path class="st0" d="M129.74,51.76v21.14h-5.29V24.58h12.33c11.41-.33,16.86,4.28,16.36,13.84-.5,5.88-3.61,9.4-9.31,10.57,5.37,0,8.22,3.02,8.56,9.06.17,3.52.5,7.13,1.01,10.82v.5c.5,1.85,1.17,2.69,2.01,2.52v1.01h-6.29c-.5-1.17-.92-2.85-1.26-5.03-.34-2.52-.5-4.95-.5-7.3-.17-5.7-2.94-8.64-8.31-8.81h-9.31ZM129.74,29.36v17.37h8.56c6.04.17,9.14-2.77,9.31-8.81-.17-5.87-3.61-8.72-10.32-8.56h-7.55Z"/>
  <path class="st0" d="M158.93,72.9l13.84-48.32h7.05l13.59,48.32h-6.04l-3.78-13.84h-15.35l-3.52,13.84h-5.79ZM182.34,54.28l-6.29-25.92-6.29,25.92h12.58Z"/>
  <path class="st0" d="M226.38,39.18h-5.29c-.34-7.21-3.27-10.82-8.81-10.82-6.54,0-9.65,6.54-9.31,19.63-.67,14.09,2.43,21.14,9.31,21.14,4.86.17,7.63-3.27,8.31-10.32v-1.51c.17-.67.33-1.26.5-1.76h5.29c-.34.67-.42,1.6-.25,2.77-.17.67-.25,1.26-.25,1.76-.34,3.86-1.26,6.71-2.77,8.56-2.52,3.36-5.96,5.03-10.32,5.03-11.07.33-16.19-8.14-15.35-25.42-.34-16.44,4.7-24.66,15.1-24.66,8.89.5,13.5,5.71,13.84,15.6Z"/>
  <path class="st0" d="M230.66,29.36v-4.78h30.2v4.78h-12.33v43.54h-5.29V29.36h-12.58Z"/>
  <path class="st0" d="M290.81,72.9h-24.16V24.58h24.16v4.78h-18.88v16.11h17.62v4.78h-17.62v17.87h18.88v4.78Z"/>
  <path class="st0" d="M304.91,51.76v21.14h-5.29V24.58h12.33c11.41-.33,16.86,4.28,16.36,13.84-.5,5.88-3.61,9.4-9.31,10.57,5.37,0,8.22,3.02,8.56,9.06.17,3.52.5,7.13,1.01,10.82v.5c.5,1.85,1.17,2.69,2.01,2.52v1.01h-6.29c-.5-1.17-.92-2.85-1.26-5.03-.34-2.52-.5-4.95-.5-7.3-.17-5.7-2.94-8.64-8.31-8.81h-9.31ZM304.91,29.36v17.37h8.56c6.04.17,9.14-2.77,9.31-8.81-.17-5.87-3.61-8.72-10.32-8.56h-7.55Z"/>
  <path class="st0" d="M388.97,57.3h5.54v3.52h7.8v2.77h-8.05v10.57c.67,3.02-1.68,5.37-7.05,7.05-.67-1.01-1.43-1.34-2.27-1.01l-3.02.5-.25-.5c5.87-1.18,8.31-3.11,7.3-5.79v-10.82h-15.86c2.35,2.01,4.78,4.2,7.3,6.54-.67,1.85-1.68,3.52-3.02,5.03-2.01-3.18-3.77-7.05-5.29-11.58h-11.33v-2.77h28.19v-3.52ZM379.15,19.04h5.03v6.04h17.62v2.52h-17.62v4.78h8.81v-2.27h5.03v20.64h-5.03v-2.52h-5.29c3.52,3.36,8.05,4.95,13.59,4.78-1.34,2.01-1.34,4.28,0,6.79-5.87-1.67-9.9-4.19-12.08-7.55-5.54,4.2-14.43,6.63-26.68,7.3,1.01-2.35.75-4.78-.75-7.3,2.01.67,4.53,1.18,7.55,1.51,3.02.17,6.29.17,9.82,0v-5.54h-8.56v2.01h-5.03v-20.13h5.03v2.27h8.56v-4.78h-17.87v-2.77h17.87v-5.79ZM370.6,34.9v4.03h8.56v-4.03h-8.56ZM379.15,41.44h-8.56v4.28h8.56v-4.28ZM393,34.9h-8.81v4.03h8.81v-4.03ZM384.19,41.44v4.28h8.81v-4.28h-8.81ZM384.19,48.24v5.03c1.34-.16,2.85-.75,4.53-1.76-.84-1.01-1.34-2.1-1.51-3.27h-3.02Z"/>
  <path class="st0" d="M428.23,18.79h5.03v2.52h27.18v-1.76h4.78v11.83h-1.76l-3.02,3.77c1.84.5,3.44,1.01,4.78,1.51.17,1.85.17,3.78,0,5.79-.84-.5-1.6-1.01-2.26-1.51v12.08h2.01v20.64c.33,2.85-1.85,5.37-6.54,7.55-.34-.67-.84-.84-1.51-.5l-3.02,1.01-.25-.5c5.2-1.68,7.46-3.86,6.79-6.54v-16.86h-11.33v3.02h3.02v-1.51h4.78v11.83h-4.28c1.34,1.68,3.27,2.6,5.79,2.77-1.18,1.01-1.51,2.77-1.01,5.29-2.01-1.34-3.44-3.11-4.28-5.29-5.71,3.19-11.92,5.03-18.62,5.54,1.01-2.01.92-3.94-.25-5.79,3.69,1.17,7.13,1.51,10.32,1.01v-4.53h-3.27v1.51h-4.53v-10.07c-.5.34-1.26.84-2.27,1.51h-2.26c-1.35,6.54-3.69,12.42-7.05,17.62h-1.51c1.85-3.86,3.02-7.97,3.52-12.33.67-4.53,1.01-12.67,1.01-24.41v-25.17ZM447.11,30.12h-14.09c0,5.54-.09,9.73-.25,12.58v8.56c-.17,5.2-.34,9.06-.5,11.58,4.03-2.52,6.71-5.7,8.05-9.56h-4.03v-12.33c-.17,0-.5.09-1.01.25-.5.17-.84.17-1.01,0,.84-2.01.67-3.94-.5-5.79,1.68.67,4.03.84,7.05.5-.34-.5-1.01-1.51-2.01-3.02-.5-.67-1.01-1.42-1.51-2.27l.25-.25c1.34.5,3.27,1.18,5.79,2.01-.17.67-.42,1.43-.75,2.27-.17.34-.25.59-.25.75,1.51-.17,3.1-.75,4.78-1.76v-3.52ZM433.01,23.83v3.78h27.43v-3.78h-27.43ZM451.89,33.89v5.79h-4.78v-5.29c-2.52,2.52-5.12,4.37-7.8,5.54h1.51v1.51h17.62v-1.26h3.27c-1.68-1.01-4.28-2.6-7.8-4.78-1.01-.67-1.68-1.17-2.01-1.51ZM444.59,57.8h-3.02c-.34.34-.67.59-1.01.75-.34.34-.59.59-.76.75h1.51v1.51h3.27v-3.02ZM440.82,43.96v5.03h3.27v-5.03h-3.27ZM440.82,51.51v1.26h5.54c-.67,1.01-1.35,1.85-2.01,2.52h16.11v-2.26h-2.01v-1.51h-17.62ZM444.59,63.34h-3.27v4.28h3.27v-4.28ZM451.14,43.96h-3.27v5.03h3.27v-5.03ZM449.12,63.34v4.28h3.02v-4.28h-3.02ZM452.14,70.13h-3.02v4.03c.84-.17,2.1-.5,3.78-1.01-.67-1.17-.92-1.84-.75-2.01v-1.01ZM460.45,30.12h-8.56v2.77c.16.17.67.34,1.51.5.84.34,2.43.76,4.78,1.26l2.27-3.02v-1.51ZM458.43,43.96h-3.52v5.03h3.52v-5.03Z"/>
  <path class="st0" d="M492.41,34.9h-6.04v-2.52h6.54v-13.59h4.53v13.59h5.03v2.52h-5.03v4.78c.67.84,1.42,1.68,2.26,2.52,2.18,1.85,3.61,3.11,4.28,3.77v-12.08h4.78v2.01h12.33v-2.01h4.78v23.16h-4.78v-3.02h-12.33v3.02h-4.78v-10.07c-1.18,2.85-1.85,4.28-2.01,4.28-.34,0-1.6-2.18-3.78-6.54-.34-.84-.59-1.51-.75-2.01v37.25h-4.53v-28.69c-1.51,4.7-3.69,9.65-6.54,14.85h-1.51c3.86-8.89,6.37-19.29,7.55-31.21ZM500.47,64.09v-2.77h11.07v-5.29h5.29v5.29h12.33v2.77h-12.58c.67,5.54,4.87,8.97,12.58,10.32-1.18,1.68-1.85,3.61-2.01,5.79,0,.17-.09.33-.25.5h-.5c-6.38-2.69-9.98-7.38-10.82-14.09-1.51,4.2-5.96,8.64-13.34,13.34h-2.77c6.21-4.37,10.23-9.65,12.08-15.86h-11.07ZM512.55,27.85v4.03h-4.53v-4.03h-5.54v-2.52h5.54v-6.54h4.53v6.54h6.04v-6.54h4.53v6.54h6.04v2.52h-6.04v4.03h-4.53v-4.03h-6.04ZM519.09,45.97h-10.32v5.54h12.33v-13.09h-12.33v5.03h10.32v2.52Z"/>
  <path class="st0" d="M553.32,30.37h24.16v-11.58h5.03v11.58h6.04c-2.35-5.03-3.61-8.22-3.77-9.56h.25c3.52,2.69,5.7,4.37,6.54,5.03-.17,1.34-.84,2.85-2.01,4.53h5.54v2.77h-12.58c-.17,8.73.42,16.02,1.76,21.9,1.34,7.38,3.86,12.84,7.55,16.36l2.77-11.33h1.01l-1.26,12.58,1.26.25v8.05c-6.71-2.69-11.75-8.81-15.1-18.37-1.18-3.69-2.01-7.97-2.52-12.84-.5-4.86-.67-10.4-.5-16.61h-24.16v-2.77ZM562.88,45.72h-8.05v-2.77h20.64v2.77h-7.55v23.91c2.01-.33,5.62-2.18,10.82-5.54l.25.25c-4.37,6.38-12.58,11.07-24.67,14.09.84-2.86.5-5.45-1.01-7.8,3.19.5,6.38.5,9.56,0v-24.92Z"/>
  <path class="st0" d="M635.62,29.87h-13.84v-2.52h14.35c.16-1.68.33-3.19.5-4.53,0-1.51.08-2.85.25-4.03h5.54c-.17,3.69-.59,6.54-1.26,8.56h22.9v2.52h-23.41c-1.34,3.69-3.61,7.55-6.79,11.58v38.51h-5.03v-32.97c-.67.67-2.01,2.01-4.03,4.03-.84.84-1.68,1.68-2.52,2.52h-1.51c3.69-3.86,6.38-7.3,8.05-10.32v-3.27h2.27c1.84-2.35,3.35-5.7,4.53-10.07ZM639.39,40.44v-2.52h18.12c.84,0,2.01-.67,3.52-2.01v5.03l-10.07,7.55h2.52v6.04h11.07v2.52h-11.07v17.37c-.17,2.52-2.35,4.61-6.54,6.29-.34,0-.5.08-.5.25-.34-.84-.76-1.18-1.26-1.01l-3.27.75c-.17-.34-.34-.59-.5-.75,4.36-1.34,6.71-2.85,7.05-4.53v-18.37h-12.58v-2.52h12.58v-5.54h-1.51l10.57-8.56h-18.12Z"/>
  <path class="st0" d="M693.5,19.29v14.35h3.02v2.52h-3.02v8.31c2.52,1.68,4.44,3.19,5.79,4.53-.34,2.01-.84,3.77-1.51,5.29-1.35-1.84-2.77-4.44-4.28-7.8v34.98h-4.78v-24.92c-.17.5-.42,1.18-.76,2.01-1.68,4.37-3.02,7.64-4.03,9.82h-2.01c3.69-9.56,5.79-20.3,6.29-32.22h-4.78v-2.52h5.29v-14.35h4.78ZM707.6,19.04h4.78v13.34l6.29-11.58,2.27,1.51-6.29,10.82h5.04v-2.27h4.78v8.05c-2.01-2.01-3.61-1.68-4.78,1.01v-4.28h-17.87v3.52h-4.53v-8.05h4.53v2.01h5.79v-14.09ZM698.79,55.54h4.78v1.76h13.34v-1.76h4.78v25.42h-4.78v-3.27h-13.34v3.27h-4.78v-25.42ZM700.3,21.06l.25-.25c2.18,2.35,4.28,4.45,6.29,6.29-1.01,2.01-2.01,3.61-3.02,4.78-2.01-4.53-3.19-8.14-3.52-10.82ZM701.81,38.93h4.53v2.01h8.05v-1.76h4.78v15.1h-4.78v-2.01h-8.05v2.01h-4.53v-15.35ZM707.85,59.82h-4.28v6.04h4.28v-6.04ZM703.57,68.37v7.05h4.28v-7.05h-4.28ZM706.34,43.46v6.29h8.05v-6.29h-8.05ZM716.91,59.82h-4.53v6.04h4.53v-6.04ZM716.91,68.37h-4.53v7.05h4.53v-7.05Z"/>
  <path class="st0" d="M749.63,19.55h5.03v2.52h33.22v2.52h-33.22v50.84h33.73v2.52h-33.73v2.77h-5.03V19.55ZM765.74,47.74h4.53v24.67h-4.53v-4.78h-3.78v4.78h-4.53v-24.41h4.53v2.01h3.78v-2.27ZM760.7,26.59h5.03v2.52h10.57v-2.52h4.78v19.88h-4.78v-2.77h-10.57v2.77h-5.03v-19.88ZM765.74,52.27h-3.78v12.84h3.78v-12.84ZM776.31,31.63h-10.57v9.56h10.57v-9.56ZM781.09,47.99h4.53v24.16h-4.53v-4.53h-4.03v4.78h-4.53v-24.67h4.53v2.27h4.03v-2.01ZM781.09,52.27h-4.03v12.84h4.03v-12.84Z"/>
</svg>